<svg height="20" viewBox="0 0 20 20" width="20" xmlns="http://www.w3.org/2000/svg"><g fill="#0395ff"><path d="m2.92892 17.0711c-.69973-.6998-1.27409-1.4774-1.72307-2.305-.434945.7268-.775741 1.4127-.980334 2.0228-.1324489.395-.23130875.8259-.22525202 1.2523.00614844.4329.12600702.974.55528102 1.4033.429275.4292.970385.5491 1.403265.5552.42642.0061.85732-.0928 1.25229-.2252.7947-.2665 1.71802-.7641 2.69286-1.3999.55375-.3611 1.14247-.779 1.75628-1.2468.73624.2416 1.52274.3722 2.33976.3722 4.1421 0 7.5-3.3579 7.5-7.5 0-.81702-.1306-1.60352-.3722-2.33976.4678-.61381.8857-1.20253 1.2468-1.75628.6358-.97484 1.1334-1.89816 1.3999-2.69286.1324-.39497.2313-.82587.2252-1.25229-.0061-.43288-.126-.97399-.5552-1.403265-.4293-.429274-.9704-.54913258-1.4033-.55528102-.4264-.00605673-.8573.09280312-1.2523.22525202-.6101.204594-1.296.545394-2.0228.980344.8276.44898 1.6052 1.02334 2.305 1.72307-.0424.10213-.079.1987-.1156.29512-.1207.31864-.2409.63588-.5674 1.14757-.035.05483-.0708.11038-.1075.16664-.1486.22788-.3089.46378-.4803.70678-.0054.00772-.0109.01544-.0163.02317-1.0851 1.53499-2.6107 3.35102-4.4356 5.21539-.0177.0181-.0354.0362-.0532.0543-.1242.1266-.2499.2534-.3769.3804-.1451.1451-.29.2885-.4346.4301-1.87383 1.8341-3.69878 3.3659-5.23866 4.4519-.21328.1504-.42108.2923-.62279.4252l-.08395.0551c-.52037.3393-.92344.5051-1.28998.6558-.10893.0448-.21481.0884-.3194.1347z"/><path d="m10 2.5c1.4299 0 2.7663.40015 3.9034 1.09458-1.0638 1.54443-2.7069 3.51003-4.75282 5.55596-2.04595 2.04596-4.01157 3.68906-5.556 4.75286-.69443-1.1371-1.09458-2.4735-1.09458-3.9034 0-4.14214 3.35786-7.5 7.5-7.5z"/></g></svg>