<svg viewBox="0 0 30 56" xmlns="http://www.w3.org/2000/svg"><g fill="var(--background-color, #c4c4c4)" fill-rule="evenodd"><circle cx="14" cy="52" fill-rule="nonzero" r="4"/><path d="m14 48h16v8h-16z" fill-rule="nonzero"/><path d="m26 16c2.2091 0 4-1.7909 4-4v4zm0-8c2.2091 0 4 1.79086 4 4v-4z"/><circle cx="18" cy="36" fill-rule="nonzero" r="4"/><path d="m18 32h12v8h-12z" fill-rule="nonzero"/><path d="m26 32c2.2091 0 4-1.7909 4-4v4zm0-8c2.2091 0 4 1.7909 4 4v-4z"/><circle cx="4" cy="20" fill-rule="nonzero" r="4"/><path d="m4 16h26v8h-26z" fill-rule="nonzero"/><path d="m26 48c2.2091 0 4-1.7909 4-4v4zm0-8c2.2091 0 4 1.7909 4 4v-4z"/><g fill-rule="nonzero"><circle cx="18" cy="4" r="4"/><path d="m18 0h12v8h-12z"/></g></g></svg>